<?xml version="1.0" encoding="UTF-8"?>
<!DOCTYPE svg PUBLIC "-//W3C//DTD SVG 1.1//EN" "http://www.w3.org/Graphics/SVG/1.1/DTD/svg11.dtd">
<!-- Creator: CorelDRAW X5 -->
<svg xmlns="http://www.w3.org/2000/svg" xml:space="preserve" width="2048px" height="2048px" style="shape-rendering:geometricPrecision; text-rendering:geometricPrecision; image-rendering:optimizeQuality; fill-rule:evenodd; clip-rule:evenodd"
viewBox="0 0 2048 2048"
 xmlns:xlink="http://www.w3.org/1999/xlink">
 <defs>
  <style type="text/css">
   <![CDATA[
    .fil18 {fill:none}
    .fil13 {fill:#005E60}
    .fil8 {fill:#006064}
    .fil14 {fill:#223539}
    .fil6 {fill:#262F34}
    .fil4 {fill:#263238}
    .fil15 {fill:#4C6B74}
    .fil9 {fill:#546E7A}
    .fil5 {fill:#9F9F9F}
    .fil12 {fill:#A0DBE0}
    .fil7 {fill:#B2EBF2}
    .fil0 {fill:#BDBDBD}
    .fil17 {fill:#C00806}
    .fil11 {fill:#D50000}
    .fil2 {fill:#DB3300}
    .fil1 {fill:#FF3D00}
    .fil3 {fill:#0091EA;fill-rule:nonzero}
    .fil16 {fill:#C00806;fill-rule:nonzero}
    .fil10 {fill:#D50000;fill-rule:nonzero}
   ]]>
  </style>
 </defs>
 <g id="Layer_x0020_1">
  <metadata id="CorelCorpID_0Corel-Layer"/>
  <g id="_359271856">
   <path class="fil0" d="M1341 618l0 665c0,16 -7,30 -17,41 -10,10 -25,17 -41,17l-969 0c-16,0 -30,-7 -41,-17 -10,-10 -17,-25 -17,-41l0 -665 1085 0z"/>
   <path class="fil1" d="M279 369c509,0 531,0 1040,0l23 0 0 23 0 226 -1085 0 0 -226 0 -23 23 0z"/>
   <path class="fil2" d="M279 645c509,0 531,0 1040,0l23 0 0 -3 0 -30 -1085 0 0 30 0 3 23 0z"/>
   <path class="fil3" d="M516 279c0,-12 10,-23 23,-23 12,0 23,10 23,23l0 226c0,12 -10,23 -23,23 -12,0 -23,-10 -23,-23l0 -226z"/>
   <path class="fil3" d="M776 279c0,-12 10,-23 23,-23 12,0 23,10 23,23l0 226c0,12 -10,23 -23,23 -12,0 -23,-10 -23,-23l0 -226z"/>
   <path class="fil3" d="M1036 279c0,-12 10,-23 23,-23 12,0 23,10 23,23l0 226c0,12 -10,23 -23,23 -12,0 -23,-10 -23,-23l0 -226z"/>
   <path class="fil4" d="M1105 1137l0 49 -274 0c0,-12 2,-24 6,-35 7,-19 18,-37 33,-55 15,-18 38,-39 67,-63 45,-37 75,-66 91,-88 16,-22 24,-42 24,-61 0,-20 -7,-37 -22,-51 -14,-14 -33,-21 -56,-21 -24,0 -44,7 -59,22 -15,15 -22,35 -22,61l-52 -5c4,-39 17,-69 40,-89 23,-20 55,-31 94,-31 40,0 71,11 94,33 23,22 35,49 35,82 0,17 -3,33 -10,49 -7,16 -18,33 -34,51 -16,18 -42,42 -78,73 -30,26 -50,43 -59,52 -9,9 -16,18 -22,27l203 0z"/>
   <path class="fil4" d="M783 1137l0 49 -274 0c0,-12 2,-24 6,-35 7,-19 18,-37 33,-55 15,-18 38,-39 67,-63 45,-37 75,-66 91,-88 16,-22 24,-42 24,-61 0,-20 -7,-37 -22,-51 -14,-14 -33,-21 -56,-21 -24,0 -44,7 -59,22 -15,15 -22,35 -22,61l-52 -5c4,-39 17,-69 40,-89 23,-20 55,-31 94,-31 40,0 71,11 94,33 23,22 35,49 35,82 0,17 -3,33 -10,49 -7,16 -18,33 -34,51 -16,18 -42,42 -78,73 -30,26 -50,43 -59,52 -9,9 -16,18 -22,27l203 0z"/>
  </g>
  <g id="_359271400">
   <path class="fil5" d="M1341 871l0 412c0,16 -7,30 -17,41 -10,10 -25,17 -41,17l-512 0c29,-265 260,-471 541,-471 10,0 19,0 29,1z"/>
   <path class="fil6" d="M1105 1137l0 49 -274 0c0,-12 2,-24 6,-35 7,-19 18,-37 33,-55 15,-18 38,-39 67,-63 42,-34 71,-62 88,-83 24,-15 50,-28 77,-38 -2,8 -4,15 -7,23 -7,16 -18,33 -34,51 -16,18 -42,42 -78,73 -30,26 -50,43 -59,52 -9,9 -16,18 -22,27l203 0z"/>
  </g>
  <g id="_360340336">
   <g>
    <circle class="fil7" cx="1331" cy="1331" r="403"/>
    <path class="fil8" d="M1331 870c127,0 242,52 326,135 83,83 135,199 135,326 0,127 -52,242 -135,326 -83,83 -199,135 -326,135 -127,0 -242,-52 -326,-135 -83,-83 -135,-199 -135,-326 0,-127 52,-242 135,-326 83,-83 199,-135 326,-135zm0 58c223,0 403,181 403,403 0,223 -181,403 -403,403 -223,0 -403,-181 -403,-403 0,-223 181,-403 403,-403z"/>
    <path class="fil4" d="M1331 986l0 0c6,0 11,4 11,10l0 333c0,5 -5,10 -11,10l0 0c-6,0 -11,-4 -11,-10l0 -333c0,-5 5,-10 11,-10z"/>
    <path class="fil9" d="M1318 1324l0 0c3,-5 9,-8 14,-5l236 127c5,3 6,9 3,14l0 0c-3,5 -9,8 -14,5l-236 -127c-5,-3 -6,-9 -3,-14z"/>
    <circle class="fil4" cx="1331" cy="1331" r="29"/>
    <path class="fil10" d="M1033 1508c-2,1 -5,0 -6,-2 -1,-2 0,-5 2,-6l371 -213c2,-1 5,0 6,2 1,2 0,5 -2,6l-371 213z"/>
    <circle class="fil11" transform="matrix(0.274634 -1.01587 1.01587 0.274634 1331.2 1331.2)" r="14"/>
   </g>
   <g>
    <path class="fil12" d="M1331 928l0 0 0 806 0 0c-223,0 -403,-181 -403,-403 0,-223 181,-403 403,-403z"/>
    <path class="fil13" d="M1331 870l0 0 0 58 0 0c-223,0 -403,181 -403,403 0,223 181,403 403,403l0 0 0 58 0 0c-127,0 -242,-52 -326,-135 -83,-83 -135,-199 -135,-326 0,-127 52,-242 135,-326 83,-83 199,-135 326,-135z"/>
    <path class="fil14" d="M1331 986l0 0 0 0 0 352 0 0 0 0c-6,0 -11,-4 -11,-10l0 -333c0,-5 5,-10 11,-10z"/>
    <path class="fil15" d="M1318 1324l0 0c3,-5 8,-7 13,-6l0 25 -9 -5c-5,-3 -6,-9 -3,-14z"/>
    <path class="fil14" d="M1331 1302l0 0 0 58 0 0c-16,0 -29,-13 -29,-29 0,-16 13,-29 29,-29z"/>
    <path class="fil16" d="M1033 1508c-2,1 -5,0 -6,-2 -1,-2 0,-5 2,-6l303 -174 0 10 -298 171z"/>
    <path class="fil17" d="M1317 1327c2,-7 8,-11 14,-11l0 30c-1,0 -3,0 -4,-1 -8,-2 -13,-10 -10,-18z"/>
   </g>
  </g>
  <rect class="fil18" width="2048" height="2048"/>
 </g>
</svg>
