<?xml version="1.0" encoding="utf-8"?>
<!-- Generator: Adobe Illustrator 22.1.0, SVG Export Plug-In . SVG Version: 6.00 Build 0)  -->
<svg version="1.1" id="Layer_1" xmlns="http://www.w3.org/2000/svg" xmlns:xlink="http://www.w3.org/1999/xlink" x="0px" y="0px"
	 viewBox="0 0 256 256" style="enable-background:new 0 0 256 256;" xml:space="preserve">
<style type="text/css">
	.st0{fill:#231F20;}
	.st1{fill:#FFEFE4;}
	.st2{fill:#69EBFC;}
	.st3{fill:#5FD4E3;}
	.st4{fill:#A1F1FC;}
	.st5{fill:#D476E2;}
	.st6{fill:#B665C2;}
	.st7{fill:#EA82FA;}
	.st8{fill:#FFF7F2;}
	.st9{fill:#FF8354;}
	.st10{fill:#FFA172;}
	.st11{fill:#6770E6;}
	.st12{fill:#5861C7;}
	.st13{fill:#E0734A;}
	.st14{fill:#EDD4C2;}
	.st15{fill:#CC6944;}
	.st16{fill:#858EFF;}
	.st17{fill:#C76642;}
	.st18{fill:#FFFFFF;}
	.st19{fill:#FFDEC7;}
	.st20{fill:#4E56B0;}
	.st21{fill:#94529E;}
	.st22{fill:#41B6C5;}
	.st23{fill:#9847A4;}
	.st24{fill:#C2552C;}
	.st25{fill:#CFB6A4;}
</style>
<g>
	<path class="st2" d="M193,256H63c-8.837,0-16-7.163-16-16V16c0-8.837,7.163-16,16-16h130c8.837,0,16,7.163,16,16v224
		C209,248.837,201.837,256,193,256z"/>
	<path class="st2" d="M193,256H63c-8.837,0-16-7.163-16-16V16c0-8.837,7.163-16,16-16h130c8.837,0,16,7.163,16,16v224
		C209,248.837,201.837,256,193,256z"/>
	<path class="st3" d="M193,250H63c-8.837,0-16-7.163-16-16v6c0,8.837,7.163,16,16,16h130c8.837,0,16-7.163,16-16v-6
		C209,242.837,201.837,250,193,250z"/>
	<path class="st4" d="M193,0H63c-8.837,0-16,7.163-16,16v6c0-8.837,7.163-16,16-16h130c8.837,0,16,7.163,16,16v-6
		C209,7.163,201.837,0,193,0z"/>
	<path class="st1" d="M57,238V30c0-4.418,3.582-8,8-8h126c4.418,0,8,3.582,8,8v208c0,4.418-3.582,8-8,8H65
		C60.582,246,57,242.418,57,238z"/>
	<path class="st3" d="M156,15h-56c-2.209,0-4-1.791-4-4v0c0-2.209,1.791-4,4-4h56c2.209,0,4,1.791,4,4v0
		C160,13.209,158.209,15,156,15z"/>
	<circle class="st3" cx="170" cy="11" r="4"/>
	<path class="st5" d="M232.417,32h-92.835C126.558,32,116,42.558,116,55.583v37.093c0,13.024,10.558,23.583,23.583,23.583h13.189
		v17.476c0,3.266,3.949,4.902,6.259,2.592l20.068-20.068h53.319c13.024,0,23.583-10.558,23.583-23.583V55.583
		C256,42.558,245.442,32,232.417,32z"/>
	<path class="st7" d="M139.582,32h92.835C245.442,32,256,42.558,256,55.583v7.692c0-13.024-10.558-23.583-23.582-23.583h-92.835
		C126.558,39.692,116,50.251,116,63.275v-7.692C116,42.558,126.558,32,139.582,32z"/>
	<path class="st1" d="M205.286,70.164h-63.62c-2.968,0-5.374-2.406-5.374-5.374v0c0-2.968,2.406-5.374,5.374-5.374h63.62
		c2.968,0,5.374,2.406,5.374,5.374v0C210.66,67.758,208.254,70.164,205.286,70.164z"/>
	<path class="st1" d="M230.335,81.873h-47.022h-11.961h-29.687c-2.968,0-5.374,2.406-5.374,5.374c0,2.968,2.406,5.374,5.374,5.374
		h29.687h11.961h47.022c2.968,0,5.374-2.406,5.374-5.374C235.709,84.279,233.303,81.873,230.335,81.873z"/>
	<path class="st11" d="M23.583,130.593h92.835c13.024,0,23.583,10.558,23.583,23.583v37.093c0,13.024-10.558,23.583-23.583,23.583
		h-13.189v17.476c0,3.266-3.949,4.902-6.259,2.592L76.901,214.85H23.583C10.558,214.85,0,204.292,0,191.268l0-37.093
		C0,141.151,10.558,130.593,23.583,130.593z"/>
	<path class="st16" d="M116.418,130.593H23.582C10.558,130.593,0,141.151,0,154.175v7.692c0-13.024,10.558-23.583,23.582-23.583
		h92.835c13.024,0,23.582,10.558,23.582,23.583v-7.692C140,141.151,129.442,130.593,116.418,130.593z"/>
	<path class="st1" d="M98.451,168.757H25.665c-2.968,0-5.374-2.406-5.374-5.374v0c0-2.968,2.406-5.374,5.374-5.374h72.786
		c2.968,0,5.374,2.406,5.374,5.374v0C103.825,166.351,101.419,168.757,98.451,168.757z"/>
	<path class="st1" d="M77.671,180.466H25.665c-2.968,0-5.374,2.406-5.374,5.374c0,2.968,2.406,5.374,5.374,5.374h52.006
		c2.968,0,5.374-2.406,5.374-5.374C83.045,182.872,80.639,180.466,77.671,180.466z"/>
</g>
</svg>
